<svg width="21" height="21" viewBox="0 0 21 21" fill="none" xmlns="http://www.w3.org/2000/svg">
<g clip-path="url(#clip0)">
<path d="M18.9314 18.0397H2.11394C0.939526 18.0397 0 17.1002 0 15.9258V5.07425C0 3.89983 0.939526 2.9603 2.11394 2.9603H18.8845C20.0589 2.9603 20.9984 3.89983 20.9984 5.07425V15.9258C21.0454 17.1002 20.0589 18.0397 18.9314 18.0397ZM2.11394 4.36961C1.73812 4.36961 1.40931 4.69846 1.40931 5.07425V15.9258C1.40931 16.3016 1.73816 16.6304 2.11394 16.6304H18.8845C19.2603 16.6304 19.5891 16.3015 19.5891 15.9258V5.07425C19.5891 4.69842 19.2603 4.36961 18.8845 4.36961H2.11394Z" fill="#176CEA"/>
<path d="M10.5227 13.1072C10.3347 13.1072 10.1938 13.0602 10.0529 12.9192L0.657618 4.60446C0.375748 4.36956 0.328769 3.89982 0.61064 3.61795C0.845532 3.33608 1.31527 3.2891 1.59714 3.57097L10.5226 11.463L19.4481 3.57097C19.73 3.33608 20.1997 3.33608 20.4346 3.61795C20.6695 3.89982 20.6695 4.36956 20.3876 4.60446L10.9924 12.9192C10.8515 13.0132 10.6636 13.1072 10.5227 13.1072Z" fill="#176CEA"/>
<path d="M0.845499 17.382C0.657585 17.382 0.469671 17.2881 0.32878 17.1471C0.0469087 16.8653 0.0938872 16.3955 0.375758 16.1606L7.0464 9.86584C7.32827 9.58396 7.79801 9.63094 8.0329 9.91281C8.31477 10.1947 8.26779 10.6644 7.98592 10.8993L1.36222 17.1941C1.22133 17.2881 1.03341 17.382 0.845499 17.382Z" fill="#176CEA"/>
<path d="M20.1527 17.382C19.9648 17.382 19.8239 17.3351 19.6829 17.1941L13.0124 10.8993C12.7305 10.6174 12.7305 10.1947 12.9654 9.91281C13.2472 9.63094 13.67 9.63094 13.9519 9.86583L20.6225 16.1606C20.9044 16.4425 20.9044 16.8653 20.6695 17.1471C20.5286 17.2881 20.3406 17.382 20.1527 17.382Z" fill="#176CEA"/>
</g>
<defs>
<clipPath id="clip0">
<rect width="21" height="21" fill="white"/>
</clipPath>
</defs>
</svg>
