<svg width="15" height="15" viewBox="0 0 15 15" fill="none" xmlns="http://www.w3.org/2000/svg">
<path d="M7.49975 0C4.45502 0 1.97766 2.47736 1.97766 5.5224C1.97766 6.31666 2.14023 7.07501 2.46061 7.77655C3.84128 10.7978 6.48842 13.9876 7.26703 14.8932C7.32536 14.9609 7.41041 14.9998 7.49991 14.9998C7.5894 14.9998 7.67445 14.9609 7.73278 14.8932C8.51108 13.9878 11.1582 10.7981 12.5394 7.77655C12.8599 7.07501 13.0223 6.31666 13.0223 5.5224C13.022 2.47736 10.5446 0 7.49975 0ZM7.49975 8.39075C5.91813 8.39075 4.63125 7.10387 4.63125 5.52224C4.63125 3.94047 5.91813 2.65359 7.49975 2.65359C9.08137 2.65359 10.3683 3.94047 10.3683 5.52224C10.3684 7.10387 9.08153 8.39075 7.49975 8.39075Z" fill="#176CEA"/>
</svg>
