<svg width="14" height="14" viewBox="0 0 14 14" fill="none" xmlns="http://www.w3.org/2000/svg">
<g clip-path="url(#clip0)">
<path d="M13.8506 13.178L9.67444 9.00184C10.4746 8.04727 10.9608 6.82563 10.9608 5.50532C10.9608 2.51597 8.46974 0.0248718 5.4804 0.0248718C2.49105 0.0248718 0 2.51603 0 5.50538C0 8.49472 2.4911 10.9858 5.48045 10.9858C6.77579 10.9858 7.97557 10.5175 8.92218 9.74425L13.0534 13.8755C13.153 13.9751 13.2527 13.9751 13.452 13.9751C13.6512 13.9751 13.7509 13.9751 13.8505 13.8755C14.0499 13.6762 14.0499 13.3773 13.8506 13.178ZM5.48045 9.98939C2.98935 9.98939 0.996488 7.99653 0.996488 5.50543C0.996488 3.01433 2.98935 1.02147 5.48045 1.02147C7.97156 1.02147 9.96442 3.01433 9.96442 5.50543C9.96442 7.99653 7.97156 9.98939 5.48045 9.98939Z" fill="#176CEA"/>
</g>
<defs>
<clipPath id="clip0">
<rect width="14" height="14" fill="white"/>
</clipPath>
</defs>
</svg>
