<svg width="15" height="15" viewBox="0 0 15 15" fill="none" xmlns="http://www.w3.org/2000/svg">
<g clip-path="url(#clip0)">
<path d="M11.4039 9.92279C10.9139 9.43898 10.3021 9.43898 9.81518 9.92279C9.44374 10.2911 9.0723 10.6594 8.7071 11.034C8.60721 11.137 8.52294 11.1589 8.4012 11.0902C8.16086 10.9591 7.90491 10.853 7.67393 10.7094C6.59706 10.032 5.69499 9.16118 4.89592 8.18108C4.49951 7.69415 4.14679 7.17288 3.9002 6.58606C3.85026 6.46745 3.85963 6.38942 3.95639 6.29266C4.32783 5.9337 4.68991 5.56538 5.05511 5.19706C5.56389 4.68516 5.56389 4.08586 5.05199 3.57083C4.7617 3.27743 4.47141 2.99026 4.18113 2.69685C3.88148 2.3972 3.58495 2.09443 3.28218 1.7979C2.79212 1.32034 2.18034 1.32034 1.6934 1.80102C1.31884 2.16934 0.959885 2.54703 0.57908 2.90911C0.226366 3.24309 0.0484489 3.65199 0.0109926 4.12956C-0.0483132 4.90677 0.14209 5.64029 0.410526 6.35508C0.959885 7.83461 1.79641 9.1487 2.81085 10.3535C4.18113 11.9829 5.81672 13.272 7.73011 14.2022C8.59161 14.6204 9.48431 14.9419 10.4551 14.995C11.123 15.0325 11.7036 14.8639 12.1687 14.3426C12.4871 13.9868 12.846 13.6622 13.1831 13.322C13.6825 12.8163 13.6857 12.2045 13.1894 11.7051C12.5963 11.1089 12.0001 10.5159 11.4039 9.92279Z" fill="#176CEA"/>
<path d="M10.8077 7.43508L11.9595 7.23843C11.7785 6.18029 11.2791 5.22203 10.5206 4.46042C9.71839 3.65823 8.70395 3.15257 7.5865 2.9965L7.42419 4.15453C8.28881 4.27626 9.07539 4.66643 9.69654 5.28758C10.2834 5.8744 10.6673 6.61728 10.8077 7.43508Z" fill="#176CEA"/>
<path d="M12.6088 2.42842C11.2791 1.09872 9.59667 0.259073 7.73946 0L7.57715 1.15802C9.18153 1.38276 10.6361 2.11004 11.7847 3.25558C12.8741 4.34493 13.5889 5.72145 13.848 7.23531L14.9997 7.03866C14.697 5.28446 13.8698 3.69257 12.6088 2.42842Z" fill="#176CEA"/>
</g>
<defs>
<clipPath id="clip0">
<rect width="15" height="15" fill="white"/>
</clipPath>
</defs>
</svg>
